<svg viewBox="0 0 1200 600" preserveAspectRatio="none" xmlns="http://www.w3.org/2000/svg">\n<path d="M50,300 Q150,50 600,100 T1150,300 Q1050,550 600,500 T50,300 Z" fill="black" />\n<path d="M86.79854279842783,78.69472421061475 Q172.1157311487747,58.69472421061475 -83.8358339022659,87.85762515887905 L-83.8358339022659,91.2554291769021 Q172.1157311487747,62.0925282286378 86.79854279842783,82.0925282286378 Z" fill="black" />\n<path d="M951.3399600379653,119.52936105926263 Q1018.7755581581212,99.52936105926263 1086.211156278277,136.1644077629669 L1086.211156278277,148.32129725383155 Q1018.7755581581212,111.68625055012727 951.3399600379653,131.68625055012726 Z" fill="black" />\n<path d="M287.75516887817315,536.2996186661733 Q346.60445507955154,516.2996186661733 170.05659647541643,517.4514189691199 L170.05659647541643,520.5096151066184 Q346.60445507955154,519.3578148036718 287.75516887817315,539.3578148036718 Z" fill="black" />\n<path d="M185.9941190018726,105.63618688729572 Q218.462098726131,85.63618688729572 121.05815955335585,88.50799837751325 L121.05815955335585,105.62299833472481 Q218.462098726131,102.75118684450729 185.9941190018726,122.75118684450729 Z" fill="black" />\n<path d="M670.1691265468038,94.44634439004729 Q722.6598816248267,74.44634439004729 565.1876163907582,91.82965784759092 L565.1876163907582,103.29697338725289 Q722.6598816248267,85.91365992970925 670.1691265468038,105.91365992970925 Z" fill="black" />\n<path d="M1100.2582357326394,579.3310341457947 Q1143.2177066878999,559.3310341457947 1014.3392938221183,573.3424502282329 L1014.3392938221183,594.4944652036909 Q1143.2177066878999,580.4830491212526 1100.2582357326394,600.4830491212526 Z" fill="black" />\n<path d="M539.1132062293996,23.122774406839703 Q612.9699330287581,3.122774406839703 686.8266598281166,38.99670954631061 L686.8266598281166,45.637731887565415 Q612.9699330287581,9.763796748094506 539.1132062293996,29.763796748094506 Z" fill="black" />\n<path d="M348.72853129913096,131.62264502942963 Q400.285128743457,111.62264502942963 451.841726187783,144.98104166309176 L451.841726187783,160.0256794014325 Q400.285128743457,126.6672827677704 348.72853129913096,146.6672827677704 Z" fill="black" />\n<path d="M245.30460618939154,21.012236553499502 Q352.4745274208492,1.012236553499502 30.964763726476235,41.00373397647424 L30.964763726476235,44.06817122927358 Q352.4745274208492,4.076673806298845 245.30460618939154,24.076673806298846 Z" fill="black" />\n<path d="M617.4368453420958,95.66267167213282 Q738.4966496935926,75.66267167213282 859.5564540450896,111.96072357039736 L859.5564540450896,121.8238670279699 Q738.4966496935926,85.52581512970535 617.4368453420958,105.52581512970535 Z" fill="black" />\n<path d="M143.33488937369552,76.82688133624646 Q192.89908086466895,56.82688133624646 44.20650639174866,70.45766300012113 L44.20650639174866,79.69916086408561 Q192.89908086466895,66.06837920021094 143.33488937369552,86.06837920021094 Z" fill="black" />\n<path d="M804.4372548291325,554.479796283141 Q851.4179919436747,534.479796283141 710.475780600048,570.4159910156277 L710.475780600048,592.4211168391823 Q851.4179919436747,556.4849221066956 804.4372548291325,576.4849221066956 Z" fill="black" />\n<path d="M745.9164885416853,30.94165898071549 Q833.3040740057552,10.941658980715491 920.691659469825,14.9724852441502 L920.691659469825,21.434948928171483 Q833.3040740057552,17.404122664736775 745.9164885416853,37.404122664736775 Z" fill="black" />\n<path d="M390.77052524361585,526.5961015646905 Q438.63386479329677,506.59610156469046 486.49720434297774,545.3494961925257 L486.49720434297774,559.6830925153592 Q438.63386479329677,520.929697887524 390.77052524361585,540.929697887524 Z" fill="black" />\n<path d="M727.8950113293705,62.957220144910075 Q815.6968233787587,42.957220144910075 552.291387230594,64.77863247407963 L552.291387230594,69.3185276361453 Q815.6968233787587,47.49711530697575 727.8950113293705,67.49711530697576 Z" fill="black" />\n<path d="M640.9431354323693,520.4784452244197 Q694.6350163231887,500.4784452244197 533.5593736507308,516.1385798501137 L533.5593736507308,519.5741724879099 Q694.6350163231887,503.9140378622159 640.9431354323693,523.9140378622159 Z" fill="black" />\n<path d="M1182.5042333749598,533.2688879213985 Q1271.8148450543745,513.2688879213985 1361.1254567337892,540.1197359144609 L1361.1254567337892,557.2096382660311 Q1271.8148450543745,530.3587902729687 1182.5042333749598,550.3587902729687 Z" fill="black" />\n<path d="M785.7290126995906,462.70347863960353 Q823.0723271611113,442.70347863960353 860.4156416226319,466.5916321844848 L860.4156416226319,481.69485463600853 Q823.0723271611113,457.80670109112725 785.7290126995906,477.80670109112725 Z" fill="black" />\n<path d="M971.6572793173534,87.62576202902237 Q999.9061685176889,67.62576202902237 1028.1550577180244,97.36937014986026 L1028.1550577180244,112.49367498581515 Q999.9061685176889,82.75006686497726 971.6572793173534,102.75006686497726 Z" fill="black" />\n<path d="M349.5705711287393,471.7161227205368 Q399.526178352025,451.7161227205368 449.4817855753107,470.545608527373 L449.4817855753107,488.5065826336822 Q399.526178352025,469.677096826846 349.5705711287393,489.677096826846 Z" fill="black" />\n<path d="M753.2403224778133,494.8019251380905 Q791.7040966617335,474.8019251380905 830.1678708456539,496.4830590405968 L830.1678708456539,504.9402191050101 Q791.7040966617335,483.2590852025038 753.2403224778133,503.2590852025038 Z" fill="black" />\n<path d="M649.4953541707123,454.6247393844325 Q745.6942698236676,434.6247393844325 457.0975228648017,461.5123391092041 L457.0975228648017,483.2281370868531 Q745.6942698236676,456.3405373620815 649.4953541707123,476.3405373620815 Z" fill="black" />\n<path d="M1107.2398207166555,93.38327728277201 Q1161.6056675122898,73.38327728277201 1215.9715143079243,104.92149960406331 L1215.9715143079243,122.67244376343108 Q1161.6056675122898,91.13422144213978 1107.2398207166555,111.13422144213978 Z" fill="black" />\n<path d="M18.504688066145512,116.35426157630573 Q116.4939413573249,96.35426157630573 214.48319464850428,110.34091014067033 L214.48319464850428,118.2336939288111 Q116.4939413573249,104.2470453644465 18.504688066145512,124.2470453644465 Z" fill="black" />\n<path d="M169.39699773825785,480.24300703035414 Q292.7657099641629,460.24300703035414 -77.34042671355229,500.1643064173177 L-77.34042671355229,521.7251948319674 Q292.7657099641629,481.80389544500395 169.39699773825785,501.80389544500395 Z" fill="black" />\n<path d="M244.89391780926462,45.83612810766346 Q277.28852016723283,25.836128107663463 180.1047130933282,30.84127512553242 L180.1047130933282,34.50922224972232 Q277.28852016723283,29.50407523185336 244.89391780926462,49.50407523185336 Z" fill="black" />\n<path d="M655.0177458795854,584.222760168507 Q745.1223510786119,564.222760168507 474.8085354815323,587.5609957989502 L474.8085354815323,598.8178337291721 Q745.1223510786119,575.4795980987288 655.0177458795854,595.4795980987288 Z" fill="black" />\n<path d="M1163.8614631881728,113.12753522748201 Q1211.0931381246842,93.12753522748201 1258.3248130611955,132.42584947804872 L1258.3248130611955,145.99224400613085 Q1211.0931381246842,106.69392975556414 1163.8614631881728,126.69392975556414 Z" fill="black" />\n<path d="M119.9631636150014,473.63782334871155 Q162.005420928319,453.63782334871155 35.878648988366194,467.8220040863112 L35.878648988366194,480.5805206445382 Q162.005420928319,466.3963399069386 119.9631636150014,486.3963399069386 Z" fill="black" />\n<path d="M64.17020420373585,14.53312682285302 Q140.345224220487,-5.466873177146979 216.52024423723822,18.086143762904566 L216.52024423723822,41.049793016063305 Q140.345224220487,17.496776076011763 64.17020420373585,37.49677607601176 Z" fill="black" />\n<path d="M967.0952225012408,502.0604612249539 Q1000.8810084811548,482.0604612249539 899.5236505414126,514.3544042621161 L899.5236505414126,526.7871463539594 Q1000.8810084811548,494.4932033167972 967.0952225012408,514.4932033167972 Z" fill="black" />\n<path d="M1001.737271999617,119.68919818450185 Q1107.098149619609,99.68919818450185 1212.4590272396013,135.994641843585 L1212.4590272396013,144.5176160451025 Q1107.098149619609,108.21217238601936 1001.737271999617,128.21217238601938 Z" fill="black" />\n<path d="M1040.3998350018417,81.85265260061846 Q1136.3572626770404,61.852652600618455 1232.3146903522388,67.50296346412068 L1232.3146903522388,80.52984693131386 Q1136.3572626770404,74.87953606781163 1040.3998350018417,94.87953606781163 Z" fill="black" />\n<path d="M531.8608601881427,556.8917386561925 Q604.1353869873021,536.8917386561925 676.4099137864616,574.4205292449969 L676.4099137864616,589.2697696750192 Q604.1353869873021,551.7409790862148 531.8608601881427,571.7409790862148 Z" fill="black" />\n<path d="M305.3966070407813,481.2084588985538 Q336.88050960607563,461.2084588985538 242.4288019101926,473.3732563115791 L242.4288019101926,493.80398861043045 Q336.88050960607563,481.6391911974051 305.3966070407813,501.6391911974051 Z" fill="black" />\n<path d="M726.7485604822842,38.6807032707794 Q779.0549313209375,18.680703270779397 622.1358188049776,49.063764819882536 L622.1358188049776,61.056754972515876 Q779.0549313209375,30.673693423412736 726.7485604822842,50.673693423412736 Z" fill="black" />\n<path d="M971.3119136939748,549.6054524123733 Q1000.042158409129,529.6054524123733 1028.7724031242833,554.3012176902954 L1028.7724031242833,565.3072362498455 Q1000.042158409129,540.6114709719234 971.3119136939748,560.6114709719234 Z" fill="black" />\n<path d="M487.48159738829924,552.2118523300899 Q601.0500276894572,532.2118523300899 714.6184579906153,559.2669743097288 L714.6184579906153,572.2043055019328 Q601.0500276894572,545.1491835222939 487.48159738829924,565.1491835222939 Z" fill="black" />\n<path d="M625.4696373693114,595.0764625223619 Q686.0561369025837,575.0764625223619 504.29663830276667,595.9827224780098 L504.29663830276667,609.2206256302183 Q686.0561369025837,588.3143656745704 625.4696373693114,608.3143656745704 Z" fill="black" />\n<path d="M26.92022007206227,132.06785805023793 Q55.7748392041414,112.06785805023793 84.62945833622052,122.0794186823872 L84.62945833622052,135.31652457818095 Q55.7748392041414,125.30496394603168 26.92022007206227,145.30496394603168 Z" fill="black" />\n<path d="M930.2849593347889,537.2240943954895 Q1031.3959431374492,517.2240943954895 728.0629917294682,547.099454664821 L728.0629917294682,563.4277589870716 Q1031.3959431374492,533.5523987177401 930.2849593347889,553.5523987177401 Z" fill="black" />\n<path d="M784.0384721901768,130.40925576053885 Q811.2079448359322,110.40925576053885 729.699526898666,124.00067774800063 L729.699526898666,139.64045178403558 Q811.2079448359322,126.04902979657379 784.0384721901768,146.0490297965738 Z" fill="black" />\n<path d="M1164.800494037438,513.7441362289092 Q1216.5571886999182,493.74413622890916 1061.2871047124777,512.0904473926068 L1061.2871047124777,515.2893143201843 Q1216.5571886999182,496.94300315648655 1164.800494037438,516.9430031564866 Z" fill="black" />\n<path d="M655.2519108486607,539.2619278062898 Q730.3079419967046,519.2619278062898 805.3639731447483,549.5291056133625 L805.3639731447483,558.6501847326049 Q730.3079419967046,528.3830069255322 655.2519108486607,548.3830069255322 Z" fill="black" />\n<path d="M1188.0876372025948,577.6335000196538 Q1303.7963133336107,557.6335000196538 956.6702849405629,562.0877106229372 L956.6702849405629,577.5571651936577 Q1303.7963133336107,573.1029545903743 1188.0876372025948,593.1029545903743 Z" fill="black" />\n<path d="M38.27580063395848,554.8916691345925 Q124.82649118222696,534.8916691345925 211.37718173049544,544.1222252252834 L211.37718173049544,560.4450184323896 Q124.82649118222696,551.2144623416987 38.27580063395848,571.2144623416987 Z" fill="black" />\n<path d="M509.8923503718665,529.5354214897615 Q565.6325992824287,509.53542148976146 398.41185255074197,509.88775918683666 L398.41185255074197,527.5876153308336 Q565.6325992824287,527.2352776337584 509.8923503718665,547.2352776337584 Z" fill="black" />\n<path d="M1114.9346015672108,453.52176542997177 Q1145.382102233126,433.52176542997177 1054.0396002353805,446.7359877758157 L1054.0396002353805,451.1283067348353 Q1145.382102233126,437.91408438899134 1114.9346015672108,457.91408438899134 Z" fill="black" />\n<path d="M220.51841705981064,573.1909835101023 Q250.79116297137335,553.1909835101023 281.06390888293606,576.4062045956537 L281.06390888293606,592.7451531771492 Q250.79116297137335,569.5299320915979 220.51841705981064,589.5299320915979 Z" fill="black" />\n<path d="M1076.7404016147545,47.13003564088155 Q1185.738742857924,27.13003564088155 1294.7370841010936,32.504623861861965 L1294.7370841010936,43.90108945509428 Q1185.738742857924,38.526501234113866 1076.7404016147545,58.526501234113866 Z" fill="black" />\n<path d="M834.9010072380713,4.206771791024999 Q935.1973827776309,-15.793228208975002 1035.4937583171904,-7.432942917103484 L1035.4937583171904,-0.7281902137576894 Q935.1973827776309,-9.088475505629207 834.9010072380713,10.911524494370795 Z" fill="black" />\n<path d="M28.564426059518144,556.4016976972189 Q105.3987982178255,536.4016976972189 -125.10431825709658,561.3623890725765 L-125.10431825709658,575.5168815710806 Q105.3987982178255,550.5561901957229 28.564426059518144,570.5561901957229 Z" fill="black" />\n<path d="M416.7897755641994,14.75963017320099 Q493.2491417883221,-5.240369826799011 263.8710431159539,0.3369609128706763 L263.8710431159539,5.8581032278871294 Q493.2491417883221,0.2807724882174423 416.7897755641994,20.280772488217444 Z" fill="black" />\n<path d="M6.803821665600829,570.478931537449 Q87.41206150706057,550.478931537449 168.02030134852032,551.8908981085194 L168.02030134852032,557.7819870676423 Q87.41206150706057,556.3700204965718 6.803821665600829,576.3700204965718 Z" fill="black" />\n<path d="M422.6047962192905,536.3174246647112 Q479.8361236406533,516.3174246647112 308.142141376565,536.162462173544 L308.142141376565,550.9771700738185 Q479.8361236406533,531.1321325649857 422.6047962192905,551.1321325649857 Z" fill="black" />\n<path d="M106.09076456136447,88.87873097103358 Q204.18622077610064,68.87873097103358 -90.10014786810791,77.54426482102406 L-90.10014786810791,85.96698433175368 Q204.18622077610064,77.3014504817632 106.09076456136447,97.3014504817632 Z" fill="black" />\n<path d="M1143.980256180779,475.7288447912475 Q1169.6757621042207,455.7288447912475 1195.3712680276624,468.29159130664885 L1195.3712680276624,471.4993274214003 Q1169.6757621042207,458.936580905999 1143.980256180779,478.936580905999 Z" fill="black" />\n<path d="M652.3002753393068,451.05028967975693 Q742.0474377746825,431.05028967975693 472.8059504685555,446.82588398983927 L472.8059504685555,468.1637338275731 Q742.0474377746825,452.38813951749074 652.3002753393068,472.38813951749074 Z" fill="black" />\n<path d="M902.6841761733563,547.2486685021925 Q997.76785642562,527.2486685021925 712.5168156688286,557.577974353188 L712.5168156688286,571.0235606177673 Q997.76785642562,540.6942547667718 902.6841761733563,560.6942547667718 Z" fill="black" />\n<path d="M29.167406337233757,74.28893527662646 Q125.67309380767797,54.28893527662646 222.1787812781222,59.67775508340945 L222.1787812781222,78.91843297421751 Q125.67309380767797,73.52961316743452 29.167406337233757,93.52961316743452 Z" fill="black" />\n<path d="M1186.2834505476571,464.0451203594474 Q1244.9489211224757,444.0451203594474 1068.9525093980199,452.31281601286685 L1068.9525093980199,458.9055970260105 Q1244.9489211224757,450.6379013725911 1186.2834505476571,470.6379013725911 Z" fill="black" />\n<path d="M223.04927459050728,110.64288757052726 Q346.2554181448028,90.64288757052726 469.4615616990982,124.46955303991119 L469.4615616990982,139.90138403293005 Q346.2554181448028,106.07471856354614 223.04927459050728,126.07471856354614 Z" fill="black" />\n<path d="M6.767099549000877,82.43555805571938 Q122.92394451759762,62.43555805571938 -225.5465903881926,102.40085015791766 L-225.5465903881926,121.76592695111009 Q122.92394451759762,81.80063484891181 6.767099549000877,101.80063484891181 Z" fill="black" />\n<path d="M169.20358643941213,575.6364268709176 Q277.40602243254625,555.6364268709176 385.6084584256804,569.6298185354639 L385.6084584256804,575.4241030457429 Q277.40602243254625,561.4307113811966 169.20358643941213,581.4307113811966 Z" fill="black" />\n<path d="M860.3082261120078,534.9372756303353 Q936.0043779446538,514.9372756303353 1011.7005297772998,529.6145516591788 L1011.7005297772998,538.1178023987119 Q936.0043779446538,523.4405263698684 860.3082261120078,543.4405263698684 Z" fill="black" />\n<path d="M382.9612207460952,457.96077476586294 Q415.23468568510077,437.96077476586294 318.41429086808404,477.55333631287624 L318.41429086808404,480.91028204735284 Q415.23468568510077,441.31772050033953 382.9612207460952,461.31772050033953 Z" fill="black" />\n<path d="M675.252969194214,20.412680444621344 Q754.7958780054668,0.4126804446213441 834.3387868167196,8.806883900583754 L834.3387868167196,30.74776981530873 Q754.7958780054668,22.353566359346317 675.252969194214,42.35356635934632 Z" fill="black" />\n<path d="M1059.7449470856016,8.907865061049625 Q1173.9890973551403,-11.092134938950375 1288.233247624679,19.490402151604584 L1288.233247624679,39.11846308454167 Q1173.9890973551403,8.535925993986714 1059.7449470856016,28.535925993986716 Z" fill="black" />\n<path d="M196.10525793546154,548.0747834079104 Q246.51031908076448,528.0747834079104 296.91538022606744,546.4775803159497 L296.91538022606744,562.6187062188558 Q246.51031908076448,544.2159093108165 196.10525793546154,564.2159093108165 Z" fill="black" />\n<path d="M269.3189144229177,121.95842915604571 Q337.88071744315766,101.95842915604571 406.4425204633976,140.17256919747558 L406.4425204633976,149.6746299069918 Q337.88071744315766,111.46048986556193 269.3189144229177,131.46048986556193 Z" fill="black" />\n<path d="M415.1892264224526,131.8922605606949 Q471.29642297925585,111.8922605606949 527.4036195360591,115.4383601350726 L527.4036195360591,121.52967048314488 Q471.29642297925585,117.98357090876718 415.1892264224526,137.98357090876718 Z" fill="black" />\n<path d="M1029.8572581549888,129.32333813775008 Q1104.2278319679142,109.32333813775008 881.1161105291378,140.34714612289352 L881.1161105291378,156.28819195327532 Q1104.2278319679142,125.26438396813188 1029.8572581549888,145.26438396813188 Z" fill="black" />\n<path d="M792.882167642977,514.8408017217563 Q827.6885888507156,494.8408017217563 862.4950100584542,500.82832205406646 L862.4950100584542,520.7850145529948 Q827.6885888507156,514.7974942206846 792.882167642977,534.7974942206846 Z" fill="black" />\n<path d="M430.2510050494582,98.61868972983403 Q469.1751383897148,78.61868972983403 352.40273836894494,98.3325455004864 L352.40273836894494,111.04559435835381 Q469.1751383897148,91.33173858770144 430.2510050494582,111.33173858770144 Z" fill="black" />\n<path d="M483.9057235548908,520.7167752026785 Q584.1925521535424,500.7167752026785 283.33206635758773,502.51643303399953 L283.33206635758773,524.2208561246077 Q584.1925521535424,522.4211982932867 483.9057235548908,542.4211982932867 Z" fill="black" />\n<path d="M296.7238840975232,40.51895800401907 Q323.5867485660758,20.51895800401907 242.99815516041795,51.355551610082884 L242.99815516041795,70.30699803344434 Q323.5867485660758,39.47040442738053 296.7238840975232,59.47040442738053 Z" fill="black" />\n<path d="M936.7776536197757,54.10013216339638 Q1029.1153784920316,34.10013216339638 752.1022038752641,59.255507289462216 L752.1022038752641,64.38021240868515 Q1029.1153784920316,39.22483728261932 936.7776536197757,59.22483728261932 Z" fill="black" />\n<path d="M1143.581976553471,121.5236883905265 Q1196.0635272175255,101.5236883905265 1038.6188752253615,125.84052881577179 L1038.6188752253615,144.32018243427402 Q1196.0635272175255,120.00334200902874 1143.581976553471,140.00334200902873 Z" fill="black" />\n<path d="M764.5662415609811,573.9630193140497 Q874.5270005031316,553.9630193140497 984.4877594452822,573.6501364346371 L984.4877594452822,577.5430569146664 Q874.5270005031316,557.855939794079 764.5662415609811,577.855939794079 Z" fill="black" />\n<path d="M518.9041355035334,580.2629130088561 Q598.6788015855033,560.2629130088561 359.35480333959384,591.9024712443418 L359.35480333959384,606.8771211655447 Q598.6788015855033,575.2375629300591 518.9041355035334,595.2375629300591 Z" fill="black" />\n<circle cx="758.6279064890681" cy="405.9248525451977" r="6.6063524160642375" fill="black" />\n<circle cx="156.65216094663762" cy="309.04976186047105" r="6.5844719927783135" fill="black" />\n<circle cx="165.53288562056125" cy="85.70222876862002" r="8.546226294411767" fill="black" />\n<circle cx="754.8023890783611" cy="156.1708164005875" r="10.410767563418446" fill="black" />\n<circle cx="14.071024367072482" cy="186.7215477741057" r="11.456622863475946" fill="black" />\n<circle cx="1004.801047540445" cy="361.2132127375892" r="3.1946407836604345" fill="black" />\n<circle cx="621.3214640093508" cy="27.803368626786185" r="2.5935627239716403" fill="black" />\n<circle cx="238.02044166593384" cy="24.678822354195205" r="7.348521101633304" fill="black" />\n<circle cx="144.9004739780567" cy="194.3201383715274" r="11.431444096558222" fill="black" />\n<circle cx="536.5981321086264" cy="63.29831556480103" r="5.538367990068728" fill="black" />\n<circle cx="485.16123740327185" cy="124.0626591406079" r="10.663067289905404" fill="black" />\n<circle cx="1048.1815643821906" cy="5.2649260679305865" r="5.4061939016301075" fill="black" />\n<circle cx="1183.679246270789" cy="115.07524997510889" r="9.066746323637597" fill="black" />\n<circle cx="188.2963198357255" cy="572.5684696432029" r="8.388397812473661" fill="black" />\n<circle cx="389.9605778662981" cy="516.4174443834563" r="8.167985287052598" fill="black" />\n<circle cx="1046.5462619161633" cy="569.2541376503575" r="7.17549713078437" fill="black" />\n<circle cx="210.01361673236346" cy="115.52752343946995" r="4.720797472287506" fill="black" />\n<circle cx="673.137757630001" cy="23.549991899989074" r="2.7396120926091188" fill="black" />\n<circle cx="910.0424558546259" cy="144.5875116112365" r="8.435786910975672" fill="black" />\n<circle cx="1145.86993586892" cy="125.28536779171624" r="7.963741958491665" fill="black" />\n<circle cx="22.519635264221805" cy="18.823641286557667" r="8.69117761342238" fill="black" />\n<circle cx="4.575057673392191" cy="398.6340527390685" r="11.620829060002484" fill="black" />\n<circle cx="678.8420389746522" cy="476.12612333544064" r="3.666706136288234" fill="black" />\n<circle cx="556.266773758327" cy="4.63524106356803" r="11.856775454331423" fill="black" />\n<circle cx="24.242587677042906" cy="153.47762480930308" r="6.148297525867185" fill="black" />\n<circle cx="382.4365825617496" cy="15.253060259952967" r="4.573905097967437" fill="black" />\n<circle cx="881.6735719010012" cy="152.44143520722753" r="4.978683343916191" fill="black" />\n<circle cx="1190.6614709404375" cy="458.6151441359908" r="8.30104972461459" fill="black" />\n<circle cx="542.6306343434643" cy="1.5815606695805284" r="2.7535009092769185" fill="black" />\n<circle cx="1117.3469053885647" cy="140.0948364719796" r="9.631991016559184" fill="black" />\n<circle cx="542.4736323471236" cy="504.29165883221935" r="10.125191277672549" fill="black" />\n<circle cx="316.7287256920336" cy="435.5878232847598" r="6.577598047463935" fill="black" />\n<circle cx="20.782847463974985" cy="117.06697846024889" r="10.276054739257695" fill="black" />\n<circle cx="941.8449163948701" cy="420.4830163179453" r="10.703286225342712" fill="black" />\n<circle cx="1078.3326828329057" cy="591.7008565948141" r="5.2077554258376875" fill="black" />\n<circle cx="498.2433938215004" cy="8.167235691056018" r="2.6228046434813206" fill="black" />\n<circle cx="115.56574041070031" cy="597.9298286959558" r="8.232108437402736" fill="black" />\n<circle cx="444.30079492401285" cy="432.60802396039736" r="7.226176248813596" fill="black" />\n<circle cx="123.31717691000944" cy="335.28005867719514" r="6.0401195836306805" fill="black" />\n<circle cx="349.8310998587681" cy="463.37599097010775" r="8.083217955580196" fill="black" />\n<circle cx="74.67370326021339" cy="597.064476693139" r="3.139019636787536" fill="black" />\n<circle cx="94.58612933411663" cy="340.19934613444104" r="4.52037497962618" fill="black" />\n<circle cx="1135.7112608408179" cy="227.0636430493277" r="10.24986607584877" fill="black" />\n<circle cx="447.8770881288928" cy="43.27092242061339" r="11.422218486707596" fill="black" />\n<circle cx="1138.8731101796714" cy="225.46916416456037" r="5.471874939997976" fill="black" />\n<circle cx="434.30622470598064" cy="502.4097324598496" r="11.744476618057043" fill="black" />\n<circle cx="623.7497327229985" cy="105.61904798841653" r="11.473653261224745" fill="black" />\n<circle cx="607.5508643180231" cy="80.44404870355642" r="6.650596178848215" fill="black" />\n<circle cx="507.18859067405714" cy="15.926035669945083" r="6.814003788741635" fill="black" />\n<circle cx="1082.3902996918416" cy="509.10553472604914" r="10.751406519845649" fill="black" />\n<circle cx="1052.616670180937" cy="218.55256791759302" r="8.204649374844244" fill="black" />\n<circle cx="608.7088477978482" cy="521.9578569044737" r="5.324706603103391" fill="black" />\n<circle cx="1136.207553256463" cy="423.6024911794427" r="10.250945312354554" fill="black" />\n<circle cx="1170.0700689642965" cy="327.4592134381445" r="5.885264477511001" fill="black" />\n<circle cx="389.88100062845564" cy="407.6390189753499" r="10.487145753191651" fill="black" />\n<circle cx="180.33490040294362" cy="507.72458229532475" r="6.838758134402974" fill="black" />\n<circle cx="1025.7530415498145" cy="481.38817001390447" r="7.956333353183315" fill="black" />\n<circle cx="361.3427773315268" cy="435.9287326888277" r="6.77618760742954" fill="black" />\n<circle cx="1012.3066061972353" cy="312.51348207750397" r="10.503760747001373" fill="black" />\n<circle cx="619.8287671048392" cy="477.472008015793" r="11.928655259683397" fill="black" />\n<circle cx="1002.2397818178374" cy="171.21737383244079" r="7.657790955530077" fill="black" />\n<circle cx="433.9966565189608" cy="479.77795627526723" r="11.937339342570649" fill="black" />\n<circle cx="290.32094537648925" cy="171.24232851314196" r="9.95539587428938" fill="black" />\n<circle cx="402.83973325950217" cy="99.45478706132391" r="7.3134560193765115" fill="black" />\n<circle cx="514.4692221738086" cy="167.3938303621438" r="7.396743568184355" fill="black" />\n<circle cx="447.24983545473856" cy="2.4192385327518107" r="7.54282048492849" fill="black" />\n<circle cx="1144.141169434344" cy="147.35622010690196" r="3.3708685795811535" fill="black" />\n<circle cx="14.441173612842118" cy="308.43283932231884" r="6.774198507472455" fill="black" />\n<circle cx="705.4595141865772" cy="97.75942134159823" r="6.485234977194148" fill="black" />\n<circle cx="404.1183662765949" cy="188.3505087228843" r="10.64307028782826" fill="black" />\n<circle cx="1179.304570634162" cy="257.2936744622834" r="8.616719422179713" fill="black" />\n<circle cx="182.84996310384793" cy="369.0347724827877" r="7.604864605887526" fill="black" />\n<circle cx="1069.9652359608374" cy="454.18069140165403" r="2.9053089593339925" fill="black" />\n<circle cx="1003.345156226182" cy="94.67467626698634" r="7.958472969395254" fill="black" />\n<circle cx="384.49958129879633" cy="2.4671169492356038" r="6.10552767138836" fill="black" />\n<circle cx="31.241288079409955" cy="444.4496741717337" r="4.886331020426326" fill="black" />\n<circle cx="614.1842635736525" cy="157.29461283602168" r="11.500333309104022" fill="black" />\n<circle cx="1069.1913598374822" cy="158.3603618859788" r="8.766060640792073" fill="black" />\n<circle cx="552.0550642455839" cy="55.066667371975385" r="4.788579640184972" fill="black" />\n<circle cx="846.108755068002" cy="487.53891994401255" r="7.215718601850215" fill="black" />\n<circle cx="911.9970688921252" cy="516.3769202341872" r="7.994091665779443" fill="black" />\n<circle cx="1175.650083981139" cy="475.43275320758517" r="10.7368356424558" fill="black" />\n<circle cx="315.0485997674537" cy="430.40078894600015" r="4.474448437825815" fill="black" />\n<circle cx="795.4978652165317" cy="90.19429849240868" r="8.537931154342587" fill="black" />\n<circle cx="387.3760451710567" cy="597.8387863185064" r="3.957777290049194" fill="black" />\n<circle cx="455.32617653743984" cy="518.7665860411286" r="11.130586785243855" fill="black" />\n<circle cx="713.7460719845361" cy="98.45926947061064" r="8.397961459872114" fill="black" />\n<circle cx="72.94308821050635" cy="426.9864457717762" r="7.819316121501327" fill="black" />\n<circle cx="727.4768854123855" cy="504.6621496053769" r="2.5107227034810746" fill="black" />\n<circle cx="279.6179126406694" cy="121.54469641778907" r="5.5171870257006335" fill="black" />\n<circle cx="167.9860051888008" cy="263.92879744562987" r="4.469906119817572" fill="black" />\n<circle cx="1061.1147422211357" cy="345.13101376814564" r="7.164152333408119" fill="black" />\n<circle cx="828.307007128441" cy="144.11323349299968" r="3.9594976300161293" fill="black" />\n<circle cx="68.56570353053924" cy="238.76361958767887" r="2.7359474602151215" fill="black" />\n<circle cx="153.30238476482313" cy="511.0567265463347" r="11.610172569447858" fill="black" />\n<circle cx="222.61891558418898" cy="45.76447913213102" r="10.688428264997595" fill="black" />\n<circle cx="1135.4729532177168" cy="163.67536154813317" r="11.289328279566147" fill="black" />\n<circle cx="430.8484486918505" cy="151.37557723537492" r="8.544119999665046" fill="black" />\n<circle cx="955.3788435216185" cy="451.7607217445418" r="10.317141383796455" fill="black" />\n<circle cx="552.2498678314379" cy="22.666072258579128" r="7.283182837382181" fill="black" />\n<circle cx="311.35565767191616" cy="501.19636521076933" r="4.3112758091758" fill="black" />\n<circle cx="196.7450777325169" cy="228.02592169455798" r="7.68327289918021" fill="black" />\n<circle cx="699.4374839622051" cy="460.661941984928" r="9.542452293784159" fill="black" />\n<circle cx="1042.493657015432" cy="512.6910762334627" r="10.221509264003386" fill="black" />\n<circle cx="79.7175551436986" cy="369.90897916219836" r="5.700105931694494" fill="black" />\n<circle cx="254.78896490600374" cy="485.36121769598486" r="9.75296836722378" fill="black" />\n<circle cx="97.95643549739066" cy="523.2250251714436" r="4.175853235682155" fill="black" />\n<circle cx="114.25994984576518" cy="579.3059955264096" r="7.916776024749682" fill="black" />\n<circle cx="170.98878854729747" cy="288.6415087094962" r="4.874666558533968" fill="black" />\n<circle cx="509.56025608949983" cy="472.37549958504775" r="9.08201025116108" fill="black" />\n<circle cx="36.0502455971539" cy="585.1157637365158" r="11.102873909833667" fill="black" />\n<circle cx="832.9123920499703" cy="496.69951517043114" r="7.967787479067306" fill="black" />\n<circle cx="569.8138043180097" cy="1.3973867016044306" r="9.309349486777041" fill="black" />\n<circle cx="1046.2777223615096" cy="407.16696649119365" r="7.19655462132177" fill="black" />\n<circle cx="299.10580040532426" cy="6.634549073350482" r="11.24459555046258" fill="black" />\n<circle cx="147.07302215449718" cy="69.73542665268646" r="9.836879241496533" fill="black" />\n<circle cx="129.15413015904232" cy="351.84583208993723" r="2.5642098369326467" fill="black" />\n<circle cx="255.91802837372674" cy="492.11532428861887" r="5.016219932323904" fill="black" />\n<circle cx="1102.601118368211" cy="310.1695156698728" r="9.158332877709096" fill="black" />\n<circle cx="1057.5693830165728" cy="30.33230439964123" r="4.302459290320373" fill="black" />\n<circle cx="177.81244438053977" cy="106.03617638388872" r="9.265292039060203" fill="black" />\n<circle cx="433.0506116162937" cy="73.48999070094557" r="9.32455607844394" fill="black" />\n<circle cx="1131.8666460075183" cy="283.28541726869133" r="3.3111372675074993" fill="black" />\n</svg>